REM DIRINDEX 1\2\4,1\2\5,1\2\6,1\3\7,1\3\8,1\3\9,1\3\10
REM DIRNAME folder01,folder02,folder03,folder04,folder05,folder06,folder07,folder08,folder09,folder10
TITLE ""
FILE "b_124.mp3" MP3
  TRACK 01 AUDIO
    TITLE "0:"
    INDEX 01 00:00:00
  TRACK 02 AUDIO
    TITLE "7:cjc057_07783"
    INDEX 01 00:00:13
  TRACK 03 AUDIO
    TITLE "0:"
    INDEX 01 00:01:42
  TRACK 04 AUDIO
    TITLE "8:cjc057_07784"
    INDEX 01 00:01:73
  TRACK 05 AUDIO
    TITLE "0:"
    INDEX 01 00:04:64
  TRACK 06 AUDIO
    TITLE "7:cjc057_07785"
    INDEX 01 00:05:71
  TRACK 07 AUDIO
    TITLE "0:"
    INDEX 01 00:07:31
  TRACK 08 AUDIO
    TITLE "8:cjc057_07786"
    INDEX 01 00:07:62
  TRACK 09 AUDIO
    TITLE "0:"
    INDEX 01 00:09:73
  TRACK 10 AUDIO
    TITLE "7:cjc057_07787"
    INDEX 01 00:11:05
  TRACK 11 AUDIO
    TITLE "0:"
    INDEX 01 00:12:28
  TRACK 12 AUDIO
    TITLE "8:cjc057_07788"
    INDEX 01 00:12:60
  TRACK 13 AUDIO
    TITLE "0:"
    INDEX 01 00:16:22
  TRACK 14 AUDIO
    TITLE "7:cjc057_07789"
    INDEX 01 00:17:29
  TRACK 15 AUDIO
    TITLE "0:"
    INDEX 01 00:18:72
  TRACK 16 AUDIO
    TITLE "8:cjc057_07790"
    INDEX 01 00:19:26
  TRACK 17 AUDIO
    TITLE "0:"
    INDEX 01 00:20:63
  TRACK 18 AUDIO
    TITLE "7:cjc057_07791"
    INDEX 01 00:21:68
  TRACK 19 AUDIO
    TITLE "0:"
    INDEX 01 00:23:40
  TRACK 20 AUDIO
    TITLE "8:cjc057_07792"
    INDEX 01 00:23:71
  TRACK 21 AUDIO
    TITLE "0:"
    INDEX 01 00:25:19
  TRACK 22 AUDIO
    TITLE "7:cjc057_07793"
    INDEX 01 00:26:24
  TRACK 23 AUDIO
    TITLE "0:"
    INDEX 01 00:27:69
  TRACK 24 AUDIO
    TITLE "8:cjc057_07794"
    INDEX 01 00:28:23
  TRACK 25 AUDIO
    TITLE "0:"
    INDEX 01 00:31:22
  TRACK 26 AUDIO
    TITLE "7:cjc057_07795"
    INDEX 01 00:32:31
  TRACK 27 AUDIO
    TITLE "0:"
    INDEX 01 00:33:73
  TRACK 28 AUDIO
    TITLE "8:cjc057_07796"
    INDEX 01 00:34:30
  TRACK 29 AUDIO
    TITLE "0:"
    INDEX 01 00:37:12
  TRACK 30 AUDIO
    TITLE "7:cjc057_07797"
    INDEX 01 00:38:14
  TRACK 31 AUDIO
    TITLE "0:"
    INDEX 01 00:39:33
  TRACK 32 AUDIO
    TITLE "8:cjc057_07798"
    INDEX 01 00:39:64
  TRACK 33 AUDIO
    TITLE "0:"
    INDEX 01 00:43:23
  TRACK 34 AUDIO
    TITLE "7:cjc057_07799"
    INDEX 01 00:44:26
  TRACK 35 AUDIO
    TITLE "0:"
    INDEX 01 00:46:00
  TRACK 36 AUDIO
    TITLE "8:cjc057_07800"
    INDEX 01 00:46:33
  TRACK 37 AUDIO
    TITLE "0:"
    INDEX 01 00:48:00
  TRACK 38 AUDIO
    TITLE "7:cjc057_07801"
    INDEX 01 00:49:06
  TRACK 39 AUDIO
    TITLE "0:"
    INDEX 01 00:50:41
  TRACK 40 AUDIO
    TITLE "8:cjc057_07802"
    INDEX 01 00:50:72
  TRACK 41 AUDIO
    TITLE "0:"
    INDEX 01 00:53:25
  TRACK 42 AUDIO
    TITLE "7:cjc057_07803"
    INDEX 01 00:54:30
  TRACK 43 AUDIO
    TITLE "0:"
    INDEX 01 00:55:46
  TRACK 44 AUDIO
    TITLE "8:cjc057_07804"
    INDEX 01 00:56:02
  TRACK 45 AUDIO
    TITLE "0:"
    INDEX 01 00:57:17
  TRACK 46 AUDIO
    TITLE "7:cjc057_07805"
    INDEX 01 00:58:22
  TRACK 47 AUDIO
    TITLE "0:"
    INDEX 01 00:59:39
  TRACK 48 AUDIO
    TITLE "8:cjc057_07806"
    INDEX 01 00:59:69
  TRACK 49 AUDIO
    TITLE "0:"
    INDEX 01 01:01:09
  TRACK 50 AUDIO
    TITLE "7:cjc057_07807"
    INDEX 01 01:02:14
  TRACK 51 AUDIO
    TITLE "0:"
    INDEX 01 01:03:37
  TRACK 52 AUDIO
    TITLE "8:cjc057_07808"
    INDEX 01 01:03:69
  TRACK 53 AUDIO
    TITLE "0:"
    INDEX 01 01:07:33
  TRACK 54 AUDIO
    TITLE "7:cjc057_07809"
    INDEX 01 01:08:38
  TRACK 55 AUDIO
    TITLE "0:"
    INDEX 01 01:09:71
  TRACK 56 AUDIO
    TITLE "8:cjc057_07810"
    INDEX 01 01:10:28
  TRACK 57 AUDIO
    TITLE "0:"
    INDEX 01 01:11:51
  TRACK 58 AUDIO
    TITLE "7:cjc057_07811"
    INDEX 01 01:12:56
  TRACK 59 AUDIO
    TITLE "0:"
    INDEX 01 01:14:02
  TRACK 60 AUDIO
    TITLE "8:cjc057_07812"
    INDEX 01 01:14:33
  TRACK 61 AUDIO
    TITLE "0:"
    INDEX 01 01:16:44
  TRACK 62 AUDIO
    TITLE "7:cjc057_07813"
    INDEX 01 01:17:49
  TRACK 63 AUDIO
    TITLE "0:"
    INDEX 01 01:18:64
  TRACK 64 AUDIO
    TITLE "8:cjc057_07814"
    INDEX 01 01:19:21
  TRACK 65 AUDIO
    TITLE "0:"
    INDEX 01 01:20:36
  TRACK 66 AUDIO
    TITLE "7:cjc057_07815"
    INDEX 01 01:21:43
  TRACK 67 AUDIO
    TITLE "0:"
    INDEX 01 01:22:72
  TRACK 68 AUDIO
    TITLE "8:cjc057_07816"
    INDEX 01 01:23:28
  TRACK 69 AUDIO
    TITLE "0:"
    INDEX 01 01:25:45
  TRACK 70 AUDIO
    TITLE "7:cjc057_07817"
    INDEX 01 01:26:52
  TRACK 71 AUDIO
    TITLE "0:"
    INDEX 01 01:27:63
  TRACK 72 AUDIO
    TITLE "8:cjc057_07818"
    INDEX 01 01:28:18
  TRACK 73 AUDIO
    TITLE "0:"
    INDEX 01 01:29:60
  TRACK 74 AUDIO
    TITLE "7:cjc057_07819"
    INDEX 01 01:30:67
  TRACK 75 AUDIO
    TITLE "0:"
    INDEX 01 01:32:27
  TRACK 76 AUDIO
    TITLE "8:cjc057_07820"
    INDEX 01 01:32:59
  TRACK 77 AUDIO
    TITLE "0:"
    INDEX 01 01:36:23
  TRACK 78 AUDIO
    TITLE "7:cjc057_07821"
    INDEX 01 01:37:28
  TRACK 79 AUDIO
    TITLE "0:"
    INDEX 01 01:38:59
  TRACK 80 AUDIO
    TITLE "8:cjc057_07822"
    INDEX 01 01:39:15
  TRACK 81 AUDIO
    TITLE "0:"
    INDEX 01 01:40:40
  TRACK 82 AUDIO
    TITLE "7:cjc057_07823"
    INDEX 01 01:41:44
  TRACK 83 AUDIO
    TITLE "0:"
    INDEX 01 01:43:19
  TRACK 84 AUDIO
    TITLE "8:cjc057_07824"
    INDEX 01 01:43:51
  TRACK 85 AUDIO
    TITLE "0:"
    INDEX 01 01:44:72
  TRACK 86 AUDIO
    TITLE "7:cjc057_07825"
    INDEX 01 01:46:00
  TRACK 87 AUDIO
    TITLE "0:"
    INDEX 01 01:47:40
  TRACK 88 AUDIO
    TITLE "8:cjc057_07826"
    INDEX 01 01:47:72
  TRACK 89 AUDIO
    TITLE "0:"
    INDEX 01 01:49:10
  TRACK 90 AUDIO
    TITLE "7:cjc057_07827"
    INDEX 01 01:50:15
  TRACK 91 AUDIO
    TITLE "0:"
    INDEX 01 01:51:52
  TRACK 92 AUDIO
    TITLE "8:cjc057_07828"
    INDEX 01 01:52:08
  TRACK 93 AUDIO
    TITLE "0:"
    INDEX 01 01:54:60
  TRACK 94 AUDIO
    TITLE "7:cjc057_07829"
    INDEX 01 01:55:65
  TRACK 95 AUDIO
    TITLE "0:"
    INDEX 01 01:57:31
  TRACK 96 AUDIO
    TITLE "8:cjc057_07830"
    INDEX 01 01:57:62
  TRACK 97 AUDIO
    TITLE "0:"
    INDEX 01 02:00:72
  TRACK 98 AUDIO
    TITLE "7:cjc057_07831"
    INDEX 01 02:02:05
  TRACK 99 AUDIO
    TITLE "0:"
    INDEX 01 02:03:16
  TRACK 100 AUDIO
    TITLE "8:cjc057_07832"
    INDEX 01 02:03:47
  TRACK 101 AUDIO
    TITLE "0:"
    INDEX 01 02:05:72
  TRACK 102 AUDIO
    TITLE "7:cjc057_07833"
    INDEX 01 02:07:06
  TRACK 103 AUDIO
    TITLE "0:"
    INDEX 01 02:08:39
  TRACK 104 AUDIO
    TITLE "8:cjc057_07834"
    INDEX 01 02:08:72
  TRACK 105 AUDIO
    TITLE "0:"
    INDEX 01 02:10:06
  TRACK 106 AUDIO
    TITLE "7:cjc057_07835"
    INDEX 01 02:11:15
  TRACK 107 AUDIO
    TITLE "0:"
    INDEX 01 02:13:03
  TRACK 108 AUDIO
    TITLE "8:cjc057_07836"
    INDEX 01 02:13:36
  TRACK 109 AUDIO
    TITLE "0:"
    INDEX 01 02:16:60
  TRACK 110 AUDIO
    TITLE "7:cjc057_07837"
    INDEX 01 02:17:65
  TRACK 111 AUDIO
    TITLE "0:"
    INDEX 01 02:19:17
  TRACK 112 AUDIO
    TITLE "8:cjc057_07838"
    INDEX 01 02:19:48
  TRACK 113 AUDIO
    TITLE "0:"
    INDEX 01 02:22:19
